Patient4_TMGait_0pt7_01_left_28_GRF.mot
version=1
nRows=26
nColumns=19
inDegrees=no
endheader
time	F1x	F1y	F1z	M1x	M1y	M1z	F2x	F2y	F2z	M2x	M2y	M2z	EC1x	EC1y	EC1z	EC2x	EC2y	EC2z
32.26	7.4141	1.5081	-9.342	0.5866	10.1234	7.0405	-9.1011	748.0875	-101.1491	275.0869	94.5809	743.8504	-0.0592	0.0182	-0.0073	-0.0462	0.0165	0.9585
32.2716	4.9476	1.8689	-6.2076	0.068957	6.6419	5.6895	-11.5086	750.9579	-91.9712	272.6086	89.095	744.9396	-0.0592	0.0182	-0.0073	-0.0462	0.0165	0.9585
32.2833	2.798	2.2599	-3.5437	-0.40292	3.6941	4.6542	-13.1094	753.4797	-84.0238	270.3272	84.0505	745.0902	-0.0592	0.0182	-0.0073	-0.0462	0.0165	0.9585
32.2949	1.1146	2.6457	-1.5007	-0.78988	1.4364	3.9786	-13.7904	755.5902	-77.8125	268.418	79.7656	744.3111	-0.0592	0.0182	-0.0073	-0.0462	0.0165	0.9585
32.3066	-0.081868	2.9807	-0.090758	-1.0814	-0.12214	3.601	-13.5954	757.413	-73.3617	266.9709	76.2993	742.8197	-0.0592	0.0182	-0.0073	-0.0462	0.0165	0.9585
32.3182	-0.8659	3.2458	0.7868	-1.282	-1.0981	3.4708	-12.6917	759.1453	-70.471	266.0086	73.6058	740.9336	-0.0592	0.0182	-0.0073	-0.0462	0.0165	0.9585
32.3299	-1.3267	3.4149	1.2561	-1.3992	-1.6278	3.4714	-11.2435	760.8978	-68.7951	265.4852	71.5261	738.8473	-0.0592	0.0182	-0.0073	-0.0462	0.0165	0.9585
32.3415	-1.5848	3.465	1.4405	-1.4381	-1.8535	3.5029	-9.3966	762.6824	-68.0154	265.3034	69.9181	736.6523	-0.0592	0.0182	-0.0073	-0.0462	0.0165	0.9585
32.3531	-1.713	3.336	1.4652	-1.3889	-1.9097	3.4143	-7.24	764.3625	-67.7806	265.3277	68.5746	734.2486	-0.0592	0.0182	-0.0073	-0.0462	0.0165	0.9585
32.3648	-1.8003	2.9669	1.3968	-1.236	-1.8848	3.0793	-4.8489	765.7284	-67.8548	265.4107	67.3725	731.4752	-0.0592	0.0182	-0.0073	-0.0462	0.0165	0.9585
32.3764	-1.8694	2.2347	1.3171	-0.94179	-1.8623	2.3098	-2.2634	766.5174	-68.0111	265.4108	66.165	728.0986	-0.0592	0.0182	-0.0073	-0.0462	0.0165	0.9585
32.3881	-1.9432	1.048	1.2316	-0.47467	-1.8475	0.99471	0.47768	766.4881	-68.1441	265.2074	64.8979	723.9171	-0.0592	0.0182	-0.0073	-0.0462	0.0165	0.9585
32.3997	-1.9866	-0.69739	1.1783	0.20001	-1.8539	-0.99462	3.351	765.4414	-68.1592	264.7122	63.5072	718.7547	-0.0592	0.0182	-0.0073	-0.0462	0.0165	0.9585
32.4114	-1.9526	-2.9886	1.112	1.0761	-1.8063	-3.6344	6.3308	763.2757	-68.05	263.8787	62.0022	712.5375	-0.0592	0.0182	-0.0073	-0.0462	0.0165	0.9585
32.423	-1.7127	-5.713	1.0257	2.1067	-1.6385	-6.8016	9.3743	759.9572	-67.8441	262.6896	60.4191	705.2569	-0.0592	0.0182	-0.0073	-0.0462	0.0165	0.9585
32.4346	-1.1362	-8.5156	0.85174	3.1542	-1.2219	-10.0771	12.4398	755.5193	-67.5899	261.15	58.8077	696.9631	-0.0592	0.0182	-0.0073	-0.0462	0.0165	0.9585
32.4463	-0.016401	-10.7264	0.53972	3.9614	-0.42231	-12.7029	15.4872	750.0235	-67.3642	259.2761	57.2431	687.735	-0.0592	0.0182	-0.0073	-0.0462	0.0165	0.9585
32.4579	1.8105	-11.2483	0.019444	4.1078	0.90118	-13.3925	18.4901	743.5153	-67.1847	257.0846	55.7382	677.6311	-0.0592	0.0182	-0.0073	-0.0462	0.0165	0.9585
32.4696	4.5189	-8.5051	-0.7643	2.9856	2.8728	-10.3301	21.4498	736.0233	-67.0742	254.5846	54.3074	666.7043	-0.0592	0.0182	-0.0073	-0.0462	0.0165	0.9585
32.4812	8.1384	-0.42114	-1.8288	-0.20299	5.5222	-1.0729	24.3957	727.4848	-66.9664	251.7571	52.8765	654.9155	-0.0592	0.0182	-0.0073	-0.0462	0.0165	0.9585
32.4929	12.5378	15.451	-3.1439	-6.3966	8.752	17.2032	27.3745	717.7397	-66.7956	248.5464	51.3757	642.1406	-0.0592	0.0182	-0.0073	-0.0462	0.0165	0.9585
32.5045	17.1829	41.6381	-4.5646	-16.5514	12.1893	47.4631	30.4254	706.4351	-66.4087	244.8319	49.6596	628.0859	-0.0592	0.0182	-0.0073	-0.0462	0.0165	0.9585
32.5161	21.096	80.1053	-5.8171	-31.3992	15.1265	92.0002	33.5148	692.9947	-65.6506	240.41	47.61	612.2967	-0.0592	0.0182	-0.0073	-0.0462	0.0165	0.9585
32.5278	22.5839	131.3668	-6.4118	-51.0949	16.3473	151.476	36.562	676.6219	-64.3006	234.9979	45.0713	594.1482	-0.0592	0.0182	-0.0073	-0.0462	0.0165	0.9585
32.5394	19.6159	193.5315	-5.6594	-74.8665	14.2967	223.7744	39.4036	656.349	-62.1511	228.253	41.9301	572.9158	-0.0592	0.0182	-0.0073	-0.0462	0.0165	0.9585
32.5511	11.3474	262.5012	-2.7499	-101.0714	7.7365	304.2123	41.8543	631.1866	-59.0268	219.8235	38.1155	547.8568	-0.0592	0.0182	-0.0073	-0.0462	0.0165	0.9585
